<svg width="20" height="20" viewBox="0 0 20 20" fill="none" xmlns="http://www.w3.org/2000/svg">
<path fill-rule="evenodd" clip-rule="evenodd" d="M10 0C4.47715 0 0 4.47715 0 10C0 15.5228 4.47715 20 10 20C15.5228 20 20 15.5228 20 10C20 4.47715 15.5228 0 10 0ZM14.5 8.5C13.6716 8.5 13 9.17157 13 10C13 10.8284 13.6716 11.5 14.5 11.5C15.3284 11.5 16 10.8284 16 10C16 9.17157 15.3284 8.5 14.5 8.5ZM8.5 10C8.5 9.17157 9.17157 8.5 10 8.5C10.8284 8.5 11.5 9.17157 11.5 10C11.5 10.8284 10.8284 11.5 10 11.5C9.17157 11.5 8.5 10.8284 8.5 10ZM5 8.5C4.17157 8.5 3.5 9.17157 3.5 10C3.5 10.8284 4.17157 11.5 5 11.5C5.82843 11.5 6.5 10.8284 6.5 10C6.5 9.17157 5.82843 8.5 5 8.5Z" fill="#FEFEFE"/>
</svg>
