<svg width="20" height="20" viewBox="0 0 20 20" fill="none" xmlns="http://www.w3.org/2000/svg">
<path fill-rule="evenodd" clip-rule="evenodd" d="M10 0C4.47714 0 0 4.47716 0 10C0 15.5229 4.47714 20 10 20C15.5229 20 20 15.5229 20 10C20 4.47716 15.5229 0 10 0ZM6.27911 7.84688L10 11.8229L13.7209 7.84688C14.1498 7.38852 14.877 7.38852 15.3059 7.84688C15.6965 8.26421 15.6965 8.91289 15.3059 9.3302L10 15L4.69406 9.3302C4.30353 8.91289 4.30353 8.26421 4.69406 7.84688C5.12302 7.38852 5.85019 7.38852 6.27911 7.84688Z" fill="#FEFEFE"/>
</svg>
