<svg width="20" height="20" viewBox="0 0 20 20" fill="none" xmlns="http://www.w3.org/2000/svg">
<rect width="20" height="20" rx="10" fill="white"/>
<path d="M14.2083 5H5.54167C5.39801 5 5.26023 5.05707 5.15865 5.15865C5.05707 5.26023 5 5.39801 5 5.54167V6.94458C5 7.22788 5.11538 7.50629 5.31579 7.70671L8.25 10.6409V14.75C8.25011 14.8423 8.27377 14.933 8.31874 15.0136C8.36371 15.0942 8.4285 15.162 8.50699 15.2105C8.58548 15.2591 8.67505 15.2868 8.76724 15.291C8.85943 15.2953 8.95117 15.2759 9.03379 15.2348L11.2005 14.1515C11.3841 14.0594 11.5 13.872 11.5 13.6667V10.6409L14.4342 7.70671C14.6346 7.50629 14.75 7.22788 14.75 6.94458V5.54167C14.75 5.39801 14.6929 5.26023 14.5914 5.15865C14.4898 5.05707 14.352 5 14.2083 5ZM10.5754 10.0337C10.525 10.0839 10.485 10.1436 10.4578 10.2093C10.4305 10.2751 10.4166 10.3455 10.4167 10.4167V13.3319L9.33333 13.8736V10.4167C9.33344 10.3455 9.31947 10.2751 9.29223 10.2093C9.26499 10.1436 9.22502 10.0839 9.17462 10.0337L6.08333 6.94458V6.08333H13.6672L13.6683 6.94079L10.5754 10.0337Z" fill="black"/>
</svg>
