<svg width="24" height="24" viewBox="0 0 24 24" fill="none" xmlns="http://www.w3.org/2000/svg">
<path d="M12 2C6.486 2 2 6.486 2 12C2 17.514 6.486 22 12 22C17.514 22 22 17.514 22 12C22 6.486 17.514 2 12 2ZM12 20C7.589 20 4 16.411 4 12C4 7.589 7.589 4 12 4C16.411 4 20 7.589 20 12C20 16.411 16.411 20 12 20Z" fill="white"/>
<path d="M16.375 7.625H7.70832C7.56466 7.625 7.42689 7.68207 7.32531 7.78365C7.22372 7.88523 7.16666 8.02301 7.16666 8.16667V9.56958C7.16666 9.85288 7.28203 10.1313 7.48245 10.3317L10.4167 13.2659V17.375C10.4168 17.4673 10.4404 17.558 10.4854 17.6386C10.5304 17.7192 10.5952 17.787 10.6736 17.8355C10.7521 17.8841 10.8417 17.9118 10.9339 17.916C11.0261 17.9203 11.1178 17.9009 11.2004 17.8598L13.3671 16.7765C13.5507 16.6844 13.6667 16.497 13.6667 16.2917V13.2659L16.6009 10.3317C16.8013 10.1313 16.9167 9.85288 16.9167 9.56958V8.16667C16.9167 8.02301 16.8596 7.88523 16.758 7.78365C16.6564 7.68207 16.5186 7.625 16.375 7.625ZM12.742 12.6587C12.6916 12.7089 12.6517 12.7686 12.6244 12.8343C12.5972 12.9001 12.5832 12.9705 12.5833 13.0417V15.9569L11.5 16.4986V13.0417C11.5001 12.9705 11.4861 12.9001 11.4589 12.8343C11.4316 12.7686 11.3917 12.7089 11.3413 12.6587L8.24999 9.56958V8.70833H15.8339L15.8349 9.56579L12.742 12.6587Z" fill="white"/>
</svg>
