<svg width="20" height="20" viewBox="0 0 20 20" fill="none" xmlns="http://www.w3.org/2000/svg">
<path fill-rule="evenodd" clip-rule="evenodd" d="M10 0C4.47714 0 0 4.47716 0 10C0 15.5229 4.47714 20 10 20C15.5229 20 20 15.5229 20 10C20 4.47716 15.5229 0 10 0ZM5.54166 5H14.2083C14.352 5 14.4898 5.05707 14.5913 5.15865C14.6929 5.26024 14.75 5.39801 14.75 5.54167V6.94458C14.75 7.22787 14.6346 7.50629 14.4342 7.70671L11.5 10.6409V13.6667C11.5 13.872 11.3841 14.0594 11.2005 14.1515L9.03378 15.2348C8.95117 15.2759 8.85944 15.2953 8.76724 15.291C8.67505 15.2868 8.58548 15.259 8.50699 15.2105C8.4285 15.162 8.36371 15.0942 8.31873 15.0136C8.27377 14.933 8.25009 14.8423 8.25 14.75V10.6409L5.3158 7.70671C5.11539 7.50629 5 7.22787 5 6.94458V5.54167C5 5.39801 5.05707 5.26024 5.15866 5.15865C5.26022 5.05707 5.39801 5 5.54166 5ZM10.4578 10.2093C10.485 10.1436 10.525 10.0839 10.5754 10.0337L13.6683 6.9408L13.6672 6.08333H6.08334V6.94458L9.17462 10.0337C9.22504 10.0839 9.26498 10.1436 9.29224 10.2093C9.31946 10.2751 9.33344 10.3455 9.33334 10.4167V13.8736L10.4167 13.3319V10.4167C10.4166 10.3455 10.4305 10.2751 10.4578 10.2093Z" fill="#FEFEFE"/>
</svg>
