<svg width="24" height="24" viewBox="0 0 24 24" fill="none" xmlns="http://www.w3.org/2000/svg">
<path d="M12 2C6.486 2 2 6.486 2 12C2 17.514 6.486 22 12 22C17.514 22 22 17.514 22 12C22 6.486 17.514 2 12 2ZM12 20C7.589 20 4 16.411 4 12C4 7.589 7.589 4 12 4C16.411 4 20 7.589 20 12C20 16.411 16.411 20 12 20Z" fill="white"/>
<path d="M12 6.16667C9.42691 6.16667 7.33333 8.26025 7.33333 10.8304C7.31641 14.59 11.8227 17.7073 12 17.8333C12 17.8333 16.6836 14.59 16.6667 10.8333C16.6667 8.26026 14.5731 6.16667 12 6.16667ZM12 13.1667C10.7108 13.1667 9.66666 12.1225 9.66666 10.8333C9.66666 9.54417 10.7108 8.50001 12 8.50001C13.2892 8.50001 14.3333 9.54417 14.3333 10.8333C14.3333 12.1225 13.2892 13.1667 12 13.1667Z" fill="white"/>
</svg>
