<svg width="20" height="20" viewBox="0 0 20 20" fill="none" xmlns="http://www.w3.org/2000/svg">
<path fill-rule="evenodd" clip-rule="evenodd" d="M10 0C4.47714 0 0 4.47716 0 10C0 15.5229 4.47714 20 10 20C15.5229 20 20 15.5229 20 10C20 4.47716 15.5229 0 10 0ZM5.33334 8.66376C5.33334 6.09358 7.42691 4 10 4C12.5731 4 14.6667 6.09358 14.6667 8.66667C14.6836 12.4233 10 17 10 17C9.82266 16.874 5.31641 12.4233 5.33334 8.66376ZM7.66666 8.66667C7.66666 9.95583 8.71082 11 10 11C11.2892 11 12.3333 9.95583 12.3333 8.66667C12.3333 7.3775 11.2892 6.33333 10 6.33333C8.71082 6.33333 7.66666 7.3775 7.66666 8.66667Z" fill="#FEFEFE"/>
</svg>
