<svg width="24" height="24" viewBox="0 0 24 24" fill="none" xmlns="http://www.w3.org/2000/svg">
<path d="M6.00083 10.9352C5.98875 11.1512 6.10959 11.3524 6.30609 11.4428L10.2487 13.2513L12.0571 17.1937C12.1433 17.3807 12.3303 17.5 12.5347 17.5L12.5647 17.4989C12.6701 17.493 12.7713 17.4555 12.8551 17.3912C12.9389 17.3269 13.0014 17.2388 13.0344 17.1385L15.974 8.18928C16.0355 8.00117 15.9861 7.79363 15.8463 7.65333C15.7066 7.51304 15.4995 7.46523 15.3104 7.52565L6.36125 10.4655C6.26093 10.4985 6.17287 10.5609 6.10858 10.6447C6.04429 10.7285 6.00674 10.8298 6.00083 10.9352ZM14.651 8.8487L12.4538 15.5375L11.1224 12.636C11.0701 12.5216 10.9783 12.4299 10.8639 12.3775L7.96162 11.0461L14.651 8.8487Z" fill="white"/>
<path d="M12 2C6.486 2 2 6.486 2 12C2 17.514 6.486 22 12 22C17.514 22 22 17.514 22 12C22 6.486 17.514 2 12 2ZM12 20C7.589 20 4 16.411 4 12C4 7.589 7.589 4 12 4C16.411 4 20 7.589 20 12C20 16.411 16.411 20 12 20Z" fill="white"/>
</svg>
