<svg width="20" height="20" viewBox="0 0 20 20" fill="none" xmlns="http://www.w3.org/2000/svg">
<path fill-rule="evenodd" clip-rule="evenodd" d="M10 0C4.47714 0 0 4.47716 0 10C0 15.5229 4.47714 20 10 20C15.5229 20 20 15.5229 20 10C20 4.47716 15.5229 0 10 0ZM4.30609 9.94278C4.10959 9.8524 3.98874 9.65115 4.00082 9.43521C4.00674 9.32976 4.04428 9.22853 4.10858 9.14473C4.17288 9.06094 4.26093 8.99846 4.36127 8.96547L13.3104 6.02565C13.4995 5.96523 13.7065 6.01305 13.8463 6.15334C13.9861 6.29362 14.0355 6.50117 13.974 6.68929L11.0344 15.6385C11.0014 15.7388 10.9389 15.8269 10.8551 15.8912C10.7713 15.9555 10.6701 15.993 10.5647 15.9989L10.5347 16C10.3303 16 10.1433 15.8807 10.0571 15.6937L8.24869 11.7513L4.30609 9.94278ZM10.4538 14.0375L12.651 7.34869L5.96161 9.54607L8.86392 10.8775C8.97833 10.9299 9.07007 11.0217 9.12244 11.136L10.4538 14.0375Z" fill="#FEFEFE"/>
</svg>
