<svg width="20" height="20" viewBox="0 0 20 20" fill="none" xmlns="http://www.w3.org/2000/svg">
<rect width="20" height="20" rx="10" fill="white"/>
<path d="M4.00083 9.43521C3.98875 9.65116 4.10959 9.8524 4.30609 9.94278L8.24869 11.7513L10.0571 15.6937C10.1433 15.8807 10.3303 16 10.5347 16L10.5647 15.9989C10.6701 15.993 10.7713 15.9555 10.8551 15.8912C10.9389 15.8269 11.0014 15.7388 11.0344 15.6385L13.974 6.68928C14.0355 6.50117 13.9861 6.29363 13.8463 6.15333C13.7066 6.01304 13.4995 5.96523 13.3104 6.02565L4.36125 8.96547C4.26093 8.99847 4.17287 9.06094 4.10858 9.14473C4.04429 9.22852 4.00674 9.32975 4.00083 9.43521ZM12.651 7.3487L10.4538 14.0375L9.12243 11.136C9.07007 11.0216 8.97832 10.9299 8.86394 10.8775L5.96162 9.54607L12.651 7.3487Z" fill="black"/>
</svg>
