<svg width="20" height="20" viewBox="0 0 20 20" fill="none" xmlns="http://www.w3.org/2000/svg">
<path fill-rule="evenodd" clip-rule="evenodd" d="M10 0C4.47715 0 0 4.47715 0 10C0 15.5228 4.47715 20 10 20C15.5228 20 20 15.5228 20 10C20 4.47715 15.5228 0 10 0ZM11.8942 12.6502C11.1468 13.2347 10.2253 13.5523 9.27647 13.5525C6.91853 13.5525 5 11.6341 5 9.27625C5 6.91843 6.91853 5 9.27647 5C11.6344 5 13.5529 6.91843 13.5529 9.27625C13.5527 10.2253 13.2349 11.1469 12.6501 11.8944L14.622 13.8662C14.8308 14.075 14.8308 14.4134 14.622 14.6221C14.4133 14.8308 14.0749 14.8308 13.8662 14.6221L11.8942 12.6502ZM12.4838 9.27625C12.4838 7.50748 11.0453 6.06906 9.27647 6.06906C7.50762 6.06906 6.06912 7.50748 6.06912 9.27625C6.06912 11.045 7.50762 12.4834 9.27647 12.4834C11.0453 12.4834 12.4838 11.045 12.4838 9.27625Z" fill="#FEFEFE"/>
</svg>
