<svg width="24" height="24" viewBox="0 0 24 24" fill="none" xmlns="http://www.w3.org/2000/svg">
<path d="M12 2C6.486 2 2 6.486 2 12C2 17.514 6.486 22 12 22C17.514 22 22 17.514 22 12C22 6.486 17.514 2 12 2ZM12 20C7.589 20 4 16.411 4 12C4 7.589 7.589 4 12 4C16.411 4 20 7.589 20 12C20 16.411 16.411 20 12 20Z" fill="white"/>
<path d="M11.2765 15.5525C12.2253 15.5523 13.1468 15.2347 13.8942 14.6502L16.2441 17L17 16.2442L14.6501 13.8944C15.2349 13.1469 15.5527 12.2253 15.5529 11.2762C15.5529 8.91843 13.6344 7 11.2765 7C8.91853 7 7 8.91843 7 11.2762C7 13.6341 8.91853 15.5525 11.2765 15.5525ZM11.2765 8.06906C13.0453 8.06906 14.4838 9.50748 14.4838 11.2762C14.4838 13.045 13.0453 14.4834 11.2765 14.4834C9.50762 14.4834 8.06912 13.045 8.06912 11.2762C8.06912 9.50748 9.50762 8.06906 11.2765 8.06906Z" fill="white"/>
</svg>
