<svg width="20" height="20" viewBox="0 0 20 20" fill="none" xmlns="http://www.w3.org/2000/svg">
<rect width="20" height="20" rx="10" fill="white"/>
<path d="M9.27647 13.5525C10.2253 13.5523 11.1468 13.2347 11.8942 12.6502L13.8662 14.6221C14.0749 14.8308 14.4133 14.8308 14.622 14.6221V14.6221C14.8308 14.4134 14.8308 14.075 14.622 13.8662L12.6501 11.8944C13.2349 11.1469 13.5527 10.2253 13.5529 9.27625C13.5529 6.91843 11.6344 5 9.27647 5C6.91853 5 5 6.91843 5 9.27625C5 11.6341 6.91853 13.5525 9.27647 13.5525ZM9.27647 6.06906C11.0453 6.06906 12.4838 7.50748 12.4838 9.27625C12.4838 11.045 11.0453 12.4834 9.27647 12.4834C7.50762 12.4834 6.06912 11.045 6.06912 9.27625C6.06912 7.50748 7.50762 6.06906 9.27647 6.06906Z" fill="black"/>
</svg>
